#!OML:ASF H:\Punching\Project 1\Capture day 1\Session 1\female.ASF
:FULLY-SPECIFIED
:DEGREES
2431
root 3.5392 13.6101 0.558819 18.077 -5.40746 5.2355
lowerback -6.02071 -5.50053 -6.99373
upperback -10.6762 -7.22548 2.90975
thorax -6.71841 -3.02725 6.89534
lowerneck -15.2335 6.26271 11.94
upperneck 29.7839 8.1762 -8.19313
head 13.4421 3.88429 -3.94215
rclavicle -7.20594e-015 4.77083e-015
rhumerus 8.43031 3.58249 -45.2089
rradius 131.645
rwrist -23.7435
rhand -28.9276 5.47251
rfingers 7.12502
rthumb -2.28177 -24.495
lclavicle -7.20594e-015 4.77083e-015
lhumerus 9.56867 -26.8369 76.7206
lradius 133.817
lwrist -1.32626
lhand -27.2107 -1.05979
lfingers 7.12502
lthumb -0.623554 28.919
rfemur -71.221 -9.88736 14.0829
rtibia 67.4627
rfoot -11.1504 -7.92876
rtoes 2.3307
lfemur 12.5979 -16.7856 -24.1023
ltibia 14.3296
lfoot -46.8136 38.9686
ltoes -9.42096
2432
root 3.45187 13.5852 0.667215 17.8065 -6.02848 4.92076
lowerback -5.98509 -5.68064 -6.91787
upperback -10.7382 -7.47182 3.02157
thorax -6.75987 -3.1506 6.97023
lowerneck -15.1885 6.57117 12.23
upperneck 29.8702 8.55739 -8.20371
head 13.5391 4.08236 -3.9313
rclavicle -1.68967e-015 2.3059e-014
rhumerus 8.01228 3.26709 -44.3897
rradius 131.471
rwrist -23.8346
rhand -28.9562 5.40004
rfingers 7.12502
rthumb -2.30943 -24.5672
lclavicle -1.68967e-015 2.3059e-014
lhumerus 9.24467 -26.3782 76.2756
lradius 133.798
lwrist -1.26667
lhand -27.35 -0.911765
lfingers 7.12502
lthumb -0.758116 29.0666
rfemur -71.0569 -9.08113 14.6216
rtibia 68.3069
rfoot -11.7922 -8.09368
rtoes 2.50216
lfemur 13.67 -16.358 -23.8433
ltibia 14.1483
lfoot -46.5083 38.5031
ltoes -10.1579
2433
root 3.36059 13.5679 0.778999 17.4734 -6.59723 4.55304
lowerback -5.92394 -5.86832 -6.77195
upperback -10.7846 -7.72996 3.12987
thorax -6.80379 -3.28522 7.00405
lowerneck -15.102 6.8765 12.539
upperneck 29.983 8.94232 -8.23229
head 13.6431 4.28286 -3.93092
rclavicle 1.38155e-014 1.82882e-014
rhumerus 7.5764 3.05687 -43.6129
rradius 131.219
rwrist -23.8794
rhand -29.0427 5.40929
rfingers 7.12502
rthumb -2.3929 -24.557
lclavicle 1.38155e-014 1.82882e-014
lhumerus 8.77202 -25.8998 75.7522
lradius 133.799
lwrist -1.18535
lhand -27.5399 -0.691843
lfingers 7.12502
lthumb -0.941568 29.2858
rfemur -70.6375 -8.27762 15.2246
rtibia 68.9965
rfoot -12.5222 -8.34008
rtoes 2.61758
lfemur 14.728 -15.8366 -23.4585
ltibia 14.0944
lfoot -46.0004 37.9326
ltoes -10.804
2434
root 3.26543 13.5603 0.894159 17.0852 -7.10593 4.15143
lowerback -5.83923 -6.0624 -6.5721
upperback -10.8209 -7.99815 3.22939
thorax -6.85568 -3.42882 7.00091
lowerneck -14.977 7.17172 12.8594
upperneck 30.1265 9.32396 -8.28023
head 13.7556 4.48171 -3.94181
rclavicle -2.65378e-014 3.10104e-014
rhumerus 7.11249 2.97046 -42.8748
rradius 130.893
rwrist -23.8763
rhand -29.2412 5.53858
rfingers 7.12502
rthumb -2.58467 -24.4255
lclavicle -2.65378e-014 3.10104e-014
lhumerus 8.13749 -25.3743 75.1821
lradius 133.799
lwrist -1.02628
lhand -27.697 -0.587423
lfingers 7.12502
lthumb -1.09329 29.3895
rfemur -69.968 -7.48822 15.8665
rtibia 69.5094
rfoot -13.2789 -8.62894
rtoes 2.76471
lfemur 15.7172 -15.2282 -22.9467
ltibia 14.2218
lfoot -45.2369 37.2896
ltoes -11.3177
2435
root 3.16668 13.5634 1.0121 16.674 -7.54818 3.72335
lowerback -5.75793 -6.26081 -6.3208
upperback -10.8593 -8.27195 3.31767
thorax -6.91568 -3.57887 6.95804
lowerneck -14.8071 7.44932 13.1854
upperneck 30.3042 9.69313 -8.34321
head 13.8753 4.67511 -3.96346
rclavicle -3.04141e-014 2.78299e-014
rhumerus 6.6134 3.02399 -42.1743
rradius 130.498
rwrist -23.8143
rhand -29.429 5.69275
rfingers 7.12502
rthumb -2.76598 -24.2691
lclavicle -3.04141e-014 2.78299e-014
lhumerus 7.30808 -24.8929 74.5821
lradius 133.818
lwrist -0.956011
lhand -27.9223 -0.319868
lfingers 7.12502
lthumb -1.31089 29.6559
rfemur -69.0947 -6.71764 16.538
rtibia 69.8409
rfoot -14.0186 -8.95648
rtoes 2.92582
lfemur 16.5421 -14.5477 -22.2932
ltibia 14.6204
lfoot -44.1732 36.611
ltoes -11.6794
